<svg width="224" height="117" viewBox="0 0 224 117" fill="none" xmlns="http://www.w3.org/2000/svg">
<g id="bride&#38; groom.">
<path d="M8.752 20.456C9.94667 18.3653 11.696 16.6587 14 15.336C16.304 14.0133 18.928 13.352 21.872 13.352C25.0293 13.352 27.8667 14.0987 30.384 15.592C32.9013 17.0853 34.8853 19.1973 36.336 21.928C37.7867 24.616 38.512 27.752 38.512 31.336C38.512 34.8773 37.7867 38.0347 36.336 40.808C34.8853 43.5813 32.88 45.736 30.32 47.272C27.8027 48.808 24.9867 49.576 21.872 49.576C18.8427 49.576 16.176 48.9147 13.872 47.592C11.6107 46.2693 9.904 44.584 8.752 42.536V49H2.928V1.64H8.752V20.456ZM32.56 31.336C32.56 28.6907 32.0267 26.3867 30.96 24.424C29.8933 22.4613 28.4427 20.968 26.608 19.944C24.816 18.92 22.832 18.408 20.656 18.408C18.5227 18.408 16.5387 18.9413 14.704 20.008C12.912 21.032 11.4613 22.5467 10.352 24.552C9.28533 26.5147 8.752 28.7973 8.752 31.4C8.752 34.0453 9.28533 36.3707 10.352 38.376C11.4613 40.3387 12.912 41.8533 14.704 42.92C16.5387 43.944 18.5227 44.456 20.656 44.456C22.832 44.456 24.816 43.944 26.608 42.92C28.4427 41.8533 29.8933 40.3387 30.96 38.376C32.0267 36.3707 32.56 34.024 32.56 31.336ZM52.002 19.624C53.026 17.6187 54.4767 16.0613 56.354 14.952C58.274 13.8427 60.5993 13.288 63.33 13.288V19.304H61.794C55.266 19.304 52.002 22.8453 52.002 29.928V49H46.178V13.928H52.002V19.624ZM73.061 8.232C71.9517 8.232 71.013 7.848 70.245 7.08C69.477 6.312 69.093 5.37333 69.093 4.264C69.093 3.15466 69.477 2.216 70.245 1.448C71.013 0.679998 71.9517 0.295998 73.061 0.295998C74.1277 0.295998 75.0237 0.679998 75.749 1.448C76.517 2.216 76.901 3.15466 76.901 4.264C76.901 5.37333 76.517 6.312 75.749 7.08C75.0237 7.848 74.1277 8.232 73.061 8.232ZM75.877 13.928V49H70.053V13.928H75.877ZM83.627 31.336C83.627 27.752 84.3523 24.616 85.803 21.928C87.2537 19.1973 89.2377 17.0853 91.755 15.592C94.315 14.0987 97.1737 13.352 100.331 13.352C103.062 13.352 105.6 13.992 107.947 15.272C110.294 16.5093 112.086 18.152 113.323 20.2V1.64H119.211V49H113.323V42.408C112.171 44.4987 110.464 46.2267 108.203 47.592C105.942 48.9147 103.296 49.576 100.267 49.576C97.1523 49.576 94.315 48.808 91.755 47.272C89.2377 45.736 87.2537 43.5813 85.803 40.808C84.3523 38.0347 83.627 34.8773 83.627 31.336ZM113.323 31.4C113.323 28.7547 112.79 26.4507 111.723 24.488C110.656 22.5253 109.206 21.032 107.371 20.008C105.579 18.9413 103.595 18.408 101.419 18.408C99.243 18.408 97.259 18.92 95.467 19.944C93.675 20.968 92.2457 22.4613 91.179 24.424C90.1123 26.3867 89.579 28.6907 89.579 31.336C89.579 34.024 90.1123 36.3707 91.179 38.376C92.2457 40.3387 93.675 41.8533 95.467 42.92C97.259 43.944 99.243 44.456 101.419 44.456C103.595 44.456 105.579 43.944 107.371 42.92C109.206 41.8533 110.656 40.3387 111.723 38.376C112.79 36.3707 113.323 34.0453 113.323 31.4ZM161.053 30.12C161.053 31.2293 160.989 32.4027 160.861 33.64H132.829C133.042 37.096 134.216 39.8053 136.349 41.768C138.525 43.688 141.149 44.648 144.221 44.648C146.738 44.648 148.829 44.072 150.493 42.92C152.2 41.7253 153.394 40.1467 154.077 38.184H160.349C159.41 41.5547 157.533 44.3067 154.717 46.44C151.901 48.5307 148.402 49.576 144.221 49.576C140.893 49.576 137.906 48.8293 135.261 47.336C132.658 45.8427 130.61 43.7307 129.117 41C127.624 38.2267 126.877 35.0267 126.877 31.4C126.877 27.7733 127.602 24.5947 129.053 21.864C130.504 19.1333 132.53 17.0427 135.133 15.592C137.778 14.0987 140.808 13.352 144.221 13.352C147.549 13.352 150.493 14.0773 153.053 15.528C155.613 16.9787 157.576 18.984 158.941 21.544C160.349 24.0613 161.053 26.92 161.053 30.12ZM155.037 28.904C155.037 26.6853 154.546 24.7867 153.565 23.208C152.584 21.5867 151.24 20.3707 149.533 19.56C147.869 18.7067 146.013 18.28 143.965 18.28C141.021 18.28 138.504 19.2187 136.413 21.096C134.365 22.9733 133.192 25.576 132.893 28.904H155.037ZM17.392 63.352C20.4213 63.352 23.0667 64.0133 25.328 65.336C27.632 66.6587 29.3387 68.3227 30.448 70.328V63.928H36.336V99.768C36.336 102.968 35.6533 105.805 34.288 108.28C32.9227 110.797 30.96 112.76 28.4 114.168C25.8827 115.576 22.9387 116.28 19.568 116.28C14.96 116.28 11.12 115.192 8.048 113.016C4.976 110.84 3.16267 107.875 2.608 104.12H8.368C9.008 106.253 10.3307 107.96 12.336 109.24C14.3413 110.563 16.752 111.224 19.568 111.224C22.768 111.224 25.3707 110.221 27.376 108.216C29.424 106.211 30.448 103.395 30.448 99.768V92.408C29.296 94.456 27.5893 96.1627 25.328 97.528C23.0667 98.8933 20.4213 99.576 17.392 99.576C14.2773 99.576 11.44 98.808 8.88 97.272C6.36267 95.736 4.37867 93.5813 2.928 90.808C1.47733 88.0347 0.752 84.8773 0.752 81.336C0.752 77.752 1.47733 74.616 2.928 71.928C4.37867 69.1973 6.36267 67.0853 8.88 65.592C11.44 64.0987 14.2773 63.352 17.392 63.352ZM30.448 81.4C30.448 78.7547 29.9147 76.4507 28.848 74.488C27.7813 72.5253 26.3307 71.032 24.496 70.008C22.704 68.9413 20.72 68.408 18.544 68.408C16.368 68.408 14.384 68.92 12.592 69.944C10.8 70.968 9.37067 72.4613 8.304 74.424C7.23733 76.3867 6.704 78.6907 6.704 81.336C6.704 84.024 7.23733 86.3707 8.304 88.376C9.37067 90.3387 10.8 91.8533 12.592 92.92C14.384 93.944 16.368 94.456 18.544 94.456C20.72 94.456 22.704 93.944 24.496 92.92C26.3307 91.8533 27.7813 90.3387 28.848 88.376C29.9147 86.3707 30.448 84.0453 30.448 81.4ZM52.002 69.624C53.026 67.6187 54.4767 66.0613 56.354 64.952C58.274 63.8427 60.5993 63.288 63.33 63.288V69.304H61.794C55.266 69.304 52.002 72.8453 52.002 79.928V99H46.178V63.928H52.002V69.624ZM85.349 99.576C82.0637 99.576 79.077 98.8293 76.389 97.336C73.7437 95.8427 71.653 93.7307 70.117 91C68.6237 88.2267 67.877 85.0267 67.877 81.4C67.877 77.816 68.645 74.6587 70.181 71.928C71.7597 69.1547 73.893 67.0427 76.581 65.592C79.269 64.0987 82.277 63.352 85.605 63.352C88.933 63.352 91.941 64.0987 94.629 65.592C97.317 67.0427 99.429 69.1333 100.965 71.864C102.544 74.5947 103.333 77.7733 103.333 81.4C103.333 85.0267 102.522 88.2267 100.901 91C99.3223 93.7307 97.1677 95.8427 94.437 97.336C91.7063 98.8293 88.677 99.576 85.349 99.576ZM85.349 94.456C87.4397 94.456 89.4023 93.9653 91.237 92.984C93.0717 92.0027 94.5437 90.5307 95.653 88.568C96.805 86.6053 97.381 84.216 97.381 81.4C97.381 78.584 96.8263 76.1947 95.717 74.232C94.6077 72.2693 93.157 70.8187 91.365 69.88C89.573 68.8987 87.6317 68.408 85.541 68.408C83.4077 68.408 81.445 68.8987 79.653 69.88C77.9037 70.8187 76.4957 72.2693 75.429 74.232C74.3623 76.1947 73.829 78.584 73.829 81.4C73.829 84.2587 74.341 86.6693 75.365 88.632C76.4317 90.5947 77.8397 92.0667 79.589 93.048C81.3383 93.9867 83.2583 94.456 85.349 94.456ZM126.287 99.576C123.001 99.576 120.015 98.8293 117.327 97.336C114.681 95.8427 112.591 93.7307 111.055 91C109.561 88.2267 108.815 85.0267 108.815 81.4C108.815 77.816 109.583 74.6587 111.119 71.928C112.697 69.1547 114.831 67.0427 117.519 65.592C120.207 64.0987 123.215 63.352 126.543 63.352C129.871 63.352 132.879 64.0987 135.567 65.592C138.255 67.0427 140.367 69.1333 141.903 71.864C143.481 74.5947 144.271 77.7733 144.271 81.4C144.271 85.0267 143.46 88.2267 141.839 91C140.26 93.7307 138.105 95.8427 135.375 97.336C132.644 98.8293 129.615 99.576 126.287 99.576ZM126.287 94.456C128.377 94.456 130.34 93.9653 132.175 92.984C134.009 92.0027 135.481 90.5307 136.591 88.568C137.743 86.6053 138.319 84.216 138.319 81.4C138.319 78.584 137.764 76.1947 136.655 74.232C135.545 72.2693 134.095 70.8187 132.303 69.88C130.511 68.8987 128.569 68.408 126.479 68.408C124.345 68.408 122.383 68.8987 120.591 69.88C118.841 70.8187 117.433 72.2693 116.367 74.232C115.3 76.1947 114.767 78.584 114.767 81.4C114.767 84.2587 115.279 86.6693 116.303 88.632C117.369 90.5947 118.777 92.0667 120.527 93.048C122.276 93.9867 124.196 94.456 126.287 94.456ZM194.104 63.288C196.835 63.288 199.267 63.864 201.4 65.016C203.533 66.1253 205.219 67.8107 206.456 70.072C207.693 72.3333 208.312 75.0853 208.312 78.328V99H202.552V79.16C202.552 75.6613 201.677 72.9947 199.928 71.16C198.221 69.2827 195.896 68.344 192.952 68.344C189.923 68.344 187.512 69.3253 185.72 71.288C183.928 73.208 183.032 76.0027 183.032 79.672V99H177.272V79.16C177.272 75.6613 176.397 72.9947 174.648 71.16C172.941 69.2827 170.616 68.344 167.672 68.344C164.643 68.344 162.232 69.3253 160.44 71.288C158.648 73.208 157.752 76.0027 157.752 79.672V99H151.928V63.928H157.752V68.984C158.904 67.1493 160.44 65.7413 162.36 64.76C164.323 63.7787 166.477 63.288 168.824 63.288C171.768 63.288 174.371 63.9493 176.632 65.272C178.893 66.5947 180.579 68.536 181.688 71.096C182.669 68.6213 184.291 66.7013 186.552 65.336C188.813 63.9707 191.331 63.288 194.104 63.288Z" fill="black"/>
<path d="M202.981 49L197.157 43.112C194.981 45.3733 192.655 47.0587 190.181 48.168C187.706 49.2347 184.911 49.768 181.797 49.768C178.725 49.768 175.994 49.2133 173.605 48.104C171.258 46.9947 169.423 45.416 168.101 43.368C166.821 41.32 166.181 38.9307 166.181 36.2C166.181 33.0853 167.055 30.3547 168.805 28.008C170.597 25.6187 173.221 23.7413 176.677 22.376C175.311 20.7547 174.33 19.2613 173.733 17.896C173.135 16.5307 172.837 15.0373 172.837 13.416C172.837 11.5387 173.306 9.85333 174.245 8.36C175.226 6.824 176.613 5.62933 178.405 4.776C180.197 3.92266 182.266 3.496 184.613 3.496C186.917 3.496 188.922 3.944 190.629 4.84C192.335 5.736 193.615 6.99466 194.469 8.616C195.322 10.1947 195.706 11.9653 195.621 13.928H189.797C189.839 12.1787 189.349 10.8133 188.325 9.832C187.301 8.808 185.978 8.296 184.357 8.296C182.65 8.296 181.263 8.78666 180.197 9.768C179.173 10.7067 178.661 11.9227 178.661 13.416C178.661 14.696 179.002 15.9333 179.685 17.128C180.41 18.3227 181.605 19.7947 183.269 21.544L196.581 34.92L197.733 33.128L202.085 25.832H208.357L203.109 34.92C202.383 36.2 201.53 37.544 200.549 38.952L210.597 49H202.981ZM181.797 44.776C184.101 44.776 186.17 44.328 188.005 43.432C189.882 42.536 191.653 41.1493 193.317 39.272L180.197 26.088C174.735 28.1787 172.005 31.4853 172.005 36.008C172.005 38.5253 172.901 40.616 174.693 42.28C176.527 43.944 178.895 44.776 181.797 44.776ZM219.722 99.384C218.612 99.384 217.674 99 216.906 98.232C216.138 97.464 215.754 96.5253 215.754 95.416C215.754 94.3067 216.138 93.368 216.906 92.6C217.674 91.832 218.612 91.448 219.722 91.448C220.788 91.448 221.684 91.832 222.41 92.6C223.178 93.368 223.562 94.3067 223.562 95.416C223.562 96.5253 223.178 97.464 222.41 98.232C221.684 99 220.788 99.384 219.722 99.384Z" fill="#FF0000"/>
</g>
</svg>
