<svg id="visual" viewBox="0 0 960 540" width="960" height="540" xmlns="http://www.w3.org/2000/svg" xmlns:xlink="http://www.w3.org/1999/xlink" version="1.1"><rect x="0" y="0" width="960" height="540" fill="#001220"></rect><defs><linearGradient id="grad1_0" x1="43.8%" y1="100%" x2="100%" y2="0%"><stop offset="14.444444444444446%" stop-color="#2231bf" stop-opacity="1"></stop><stop offset="85.55555555555554%" stop-color="#2231bf" stop-opacity="1"></stop></linearGradient></defs><defs><linearGradient id="grad1_1" x1="43.8%" y1="100%" x2="100%" y2="0%"><stop offset="14.444444444444446%" stop-color="#2231bf" stop-opacity="1"></stop><stop offset="85.55555555555554%" stop-color="#00318e" stop-opacity="1"></stop></linearGradient></defs><defs><linearGradient id="grad1_2" x1="43.8%" y1="100%" x2="100%" y2="0%"><stop offset="14.444444444444446%" stop-color="#002456" stop-opacity="1"></stop><stop offset="85.55555555555554%" stop-color="#00318e" stop-opacity="1"></stop></linearGradient></defs><defs><linearGradient id="grad1_3" x1="43.8%" y1="100%" x2="100%" y2="0%"><stop offset="14.444444444444446%" stop-color="#002456" stop-opacity="1"></stop><stop offset="85.55555555555554%" stop-color="#001220" stop-opacity="1"></stop></linearGradient></defs><defs><linearGradient id="grad2_0" x1="0%" y1="100%" x2="56.3%" y2="0%"><stop offset="14.444444444444446%" stop-color="#2231bf" stop-opacity="1"></stop><stop offset="85.55555555555554%" stop-color="#2231bf" stop-opacity="1"></stop></linearGradient></defs><defs><linearGradient id="grad2_1" x1="0%" y1="100%" x2="56.3%" y2="0%"><stop offset="14.444444444444446%" stop-color="#00318e" stop-opacity="1"></stop><stop offset="85.55555555555554%" stop-color="#2231bf" stop-opacity="1"></stop></linearGradient></defs><defs><linearGradient id="grad2_2" x1="0%" y1="100%" x2="56.3%" y2="0%"><stop offset="14.444444444444446%" stop-color="#00318e" stop-opacity="1"></stop><stop offset="85.55555555555554%" stop-color="#002456" stop-opacity="1"></stop></linearGradient></defs><defs><linearGradient id="grad2_3" x1="0%" y1="100%" x2="56.3%" y2="0%"><stop offset="14.444444444444446%" stop-color="#001220" stop-opacity="1"></stop><stop offset="85.55555555555554%" stop-color="#002456" stop-opacity="1"></stop></linearGradient></defs><g transform="translate(960, 540)"><path d="M-513 0C-486.9 -57.4 -460.7 -114.8 -441.6 -182.9C-422.5 -251 -410.3 -329.8 -362.7 -362.7C-315.1 -395.7 -232.1 -382.6 -165.7 -400C-99.3 -417.4 -49.7 -465.2 0 -513L0 0Z" fill="#001c3a"></path><path d="M-384.7 0C-365.2 -43.1 -345.6 -86.1 -331.2 -137.2C-316.9 -188.3 -307.8 -247.4 -272.1 -272.1C-236.4 -296.7 -174.1 -287 -124.3 -300C-74.5 -313.1 -37.2 -348.9 0 -384.7L0 0Z" fill="#002b72"></path><path d="M-256.5 0C-243.4 -28.7 -230.4 -57.4 -220.8 -91.5C-211.2 -125.5 -205.2 -164.9 -181.4 -181.4C-157.6 -197.8 -116 -191.3 -82.9 -200C-49.7 -208.7 -24.8 -232.6 0 -256.5L0 0Z" fill="#0033a8"></path><path d="M-128.2 0C-121.7 -14.4 -115.2 -28.7 -110.4 -45.7C-105.6 -62.8 -102.6 -82.5 -90.7 -90.7C-78.8 -98.9 -58 -95.7 -41.4 -100C-24.8 -104.4 -12.4 -116.3 0 -128.2L0 0Z" fill="#2231bf"></path></g><g transform="translate(0, 0)"><path d="M513 0C511 72.7 509 145.4 474 196.3C438.9 247.3 370.9 276.5 321.7 321.7C272.6 367 242.2 428.3 191.7 462.9C141.2 497.4 70.6 505.2 0 513L0 0Z" fill="#001c3a"></path><path d="M384.8 0C383.2 54.5 381.7 109 355.5 147.2C329.2 185.4 278.2 207.4 241.3 241.3C204.4 275.2 181.7 321.2 143.8 347.1C105.9 373.1 53 378.9 0 384.8L0 0Z" fill="#002b72"></path><path d="M256.5 0C255.5 36.3 254.5 72.7 237 98.2C219.5 123.6 185.5 138.2 160.9 160.9C136.3 183.5 121.1 214.2 95.9 231.4C70.6 248.7 35.3 252.6 0 256.5L0 0Z" fill="#0033a8"></path><path d="M128.3 0C127.7 18.2 127.2 36.3 118.5 49.1C109.7 61.8 92.7 69.1 80.4 80.4C68.1 91.7 60.6 107.1 47.9 115.7C35.3 124.4 17.7 126.3 0 128.3L0 0Z" fill="#2231bf"></path></g></svg>