<svg id="visual" viewBox="0 0 960 540" width="960" height="540" xmlns="http://www.w3.org/2000/svg" xmlns:xlink="http://www.w3.org/1999/xlink" version="1.1"><rect x="0" y="0" width="960" height="540" fill="#FFFFFF"></rect><defs><linearGradient id="grad1_0" x1="43.8%" y1="100%" x2="100%" y2="0%"><stop offset="14.444444444444446%" stop-color="#ff6f61" stop-opacity="1"></stop><stop offset="85.55555555555554%" stop-color="#ff6f61" stop-opacity="1"></stop></linearGradient></defs><defs><linearGradient id="grad1_1" x1="43.8%" y1="100%" x2="100%" y2="0%"><stop offset="14.444444444444446%" stop-color="#ff6f61" stop-opacity="1"></stop><stop offset="85.55555555555554%" stop-color="#ffa193" stop-opacity="1"></stop></linearGradient></defs><defs><linearGradient id="grad1_2" x1="43.8%" y1="100%" x2="100%" y2="0%"><stop offset="14.444444444444446%" stop-color="#ffd1c8" stop-opacity="1"></stop><stop offset="85.55555555555554%" stop-color="#ffa193" stop-opacity="1"></stop></linearGradient></defs><defs><linearGradient id="grad1_3" x1="43.8%" y1="100%" x2="100%" y2="0%"><stop offset="14.444444444444446%" stop-color="#ffd1c8" stop-opacity="1"></stop><stop offset="85.55555555555554%" stop-color="#ffffff" stop-opacity="1"></stop></linearGradient></defs><defs><linearGradient id="grad2_0" x1="0%" y1="100%" x2="56.3%" y2="0%"><stop offset="14.444444444444446%" stop-color="#ff6f61" stop-opacity="1"></stop><stop offset="85.55555555555554%" stop-color="#ff6f61" stop-opacity="1"></stop></linearGradient></defs><defs><linearGradient id="grad2_1" x1="0%" y1="100%" x2="56.3%" y2="0%"><stop offset="14.444444444444446%" stop-color="#ffa193" stop-opacity="1"></stop><stop offset="85.55555555555554%" stop-color="#ff6f61" stop-opacity="1"></stop></linearGradient></defs><defs><linearGradient id="grad2_2" x1="0%" y1="100%" x2="56.3%" y2="0%"><stop offset="14.444444444444446%" stop-color="#ffa193" stop-opacity="1"></stop><stop offset="85.55555555555554%" stop-color="#ffd1c8" stop-opacity="1"></stop></linearGradient></defs><defs><linearGradient id="grad2_3" x1="0%" y1="100%" x2="56.3%" y2="0%"><stop offset="14.444444444444446%" stop-color="#ffffff" stop-opacity="1"></stop><stop offset="85.55555555555554%" stop-color="#ffd1c8" stop-opacity="1"></stop></linearGradient></defs><g transform="translate(960, 540)"><path d="M-513 0C-507.1 -67.4 -501.3 -134.8 -474 -196.3C-446.6 -257.9 -397.9 -313.6 -341.5 -341.5C-285.2 -369.5 -221.2 -369.6 -163 -393.6C-104.8 -417.5 -52.4 -465.3 0 -513L0 0Z" fill="#ffe8e3"></path><path d="M-384.7 0C-380.3 -50.5 -375.9 -101.1 -355.5 -147.2C-335 -193.4 -298.4 -235.2 -256.1 -256.1C-213.9 -277.1 -165.9 -277.2 -122.3 -295.2C-78.6 -313.1 -39.3 -348.9 0 -384.7L0 0Z" fill="#ffb9ad"></path><path d="M-256.5 0C-253.6 -33.7 -250.6 -67.4 -237 -98.2C-223.3 -128.9 -198.9 -156.8 -170.8 -170.8C-142.6 -184.7 -110.6 -184.8 -81.5 -196.8C-52.4 -208.8 -26.2 -232.6 0 -256.5L0 0Z" fill="#ff897a"></path><path d="M-128.2 0C-126.8 -16.8 -125.3 -33.7 -118.5 -49.1C-111.7 -64.5 -99.5 -78.4 -85.4 -85.4C-71.3 -92.4 -55.3 -92.4 -40.8 -98.4C-26.2 -104.4 -13.1 -116.3 0 -128.2L0 0Z" fill="#ff6f61"></path></g><g transform="translate(0, 0)"><path d="M513 0C509.4 69.8 505.7 139.6 474 196.3C442.2 253 382.2 296.7 326.7 326.7C271.2 356.7 220.2 373.1 166.5 401.9C112.8 430.7 56.4 471.8 0 513L0 0Z" fill="#ffe8e3"></path><path d="M384.8 0C382 52.4 379.3 104.7 355.5 147.2C331.6 189.8 286.6 222.5 245 245C203.4 267.5 165.1 279.8 124.9 301.4C84.6 323 42.3 353.9 0 384.8L0 0Z" fill="#ffb9ad"></path><path d="M256.5 0C254.7 34.9 252.9 69.8 237 98.2C221.1 126.5 191.1 148.3 163.3 163.3C135.6 178.4 110.1 186.6 83.2 200.9C56.4 215.3 28.2 235.9 0 256.5L0 0Z" fill="#ff897a"></path><path d="M128.3 0C127.3 17.5 126.4 34.9 118.5 49.1C110.5 63.3 95.5 74.2 81.7 81.7C67.8 89.2 55 93.3 41.6 100.5C28.2 107.7 14.1 118 0 128.3L0 0Z" fill="#ff6f61"></path></g></svg>